<?xml version="1.0" encoding="UTF-8" standalone="no"?><svg xmlns="http://www.w3.org/2000/svg" xmlns:xlink="http://www.w3.org/1999/xlink" contentScriptType="application/ecmascript" contentStyleType="text/css" height="170px" preserveAspectRatio="none" style="width:1236px;height:170px;background:#FFFFFF;" version="1.1" viewBox="0 0 1236 170" width="1236px" zoomAndPan="magnify"><defs/><g><rect fill="#FFFFFF" height="20.2969" rx="5" ry="5" style="stroke:#FFFFFF;stroke-width:1.5;" width="208" x="10" y="96.5"/><text fill="#000000" font-family="sans-serif" font-size="14" font-weight="bold" lengthAdjust="spacing" textLength="176" x="15" y="111.4951">virtual-comment-store</text><text fill="#000000" font-family="sans-serif" font-size="14" lengthAdjust="spacing" textLength="0" x="213" y="111.4951"/><line style="stroke:#000000;stroke-width:1.0;" x1="196" x2="196" y1="96.5" y2="116.7969"/><rect fill="none" height="20.2969" rx="5" ry="5" style="stroke:#000000;stroke-width:1.5;" width="208" x="10" y="96.5"/><rect fill="#FFFFFF" height="40.5938" rx="5" ry="5" style="stroke:#FFFFFF;stroke-width:1.5;" width="97" x="255" y="86"/><text fill="#000000" font-family="sans-serif" font-size="14" font-weight="bold" lengthAdjust="spacing" textLength="55" x="260" y="100.9951">default</text><text fill="#000000" font-family="sans-serif" font-size="14" lengthAdjust="spacing" textLength="0" x="347" y="100.9951"/><line style="stroke:#000000;stroke-width:1.0;" x1="330" x2="330" y1="86" y2="106.2969"/><line style="stroke:#000000;stroke-width:1.0;" x1="255" x2="352" y1="106.2969" y2="106.2969"/><text fill="#000000" font-family="sans-serif" font-size="14" font-weight="bold" lengthAdjust="spacing" textLength="65" x="260" y="121.292">projects</text><text fill="#000000" font-family="sans-serif" font-size="14" lengthAdjust="spacing" textLength="0" x="347" y="121.292"/><line style="stroke:#000000;stroke-width:1.0;" x1="330" x2="330" y1="106.2969" y2="126.5938"/><rect fill="none" height="40.5938" rx="5" ry="5" style="stroke:#000000;stroke-width:1.5;" width="97" x="255" y="86"/><rect fill="#FFFFFF" height="15" rx="5" ry="5" style="stroke:#FFFFFF;stroke-width:1.5;" width="30" x="439" y="74.5"/><rect fill="none" height="15" rx="5" ry="5" style="stroke:#000000;stroke-width:1.5;" width="30" x="439" y="74.5"/><rect fill="#FFFFFF" height="40.5938" rx="5" ry="5" style="stroke:#FFFFFF;stroke-width:1.5;" width="124" x="389" y="109"/><text fill="#000000" font-family="sans-serif" font-size="14" font-weight="bold" lengthAdjust="spacing" textLength="76" x="394" y="123.9951">project-id</text><text fill="#000000" font-family="sans-serif" font-size="14" lengthAdjust="spacing" textLength="0" x="508" y="123.9951"/><line style="stroke:#000000;stroke-width:1.0;" x1="491" x2="491" y1="109" y2="129.2969"/><line style="stroke:#000000;stroke-width:1.0;" x1="389" x2="513" y1="129.2969" y2="129.2969"/><text fill="#000000" font-family="sans-serif" font-size="14" font-weight="bold" lengthAdjust="spacing" textLength="92" x="394" y="144.292">project-id-2</text><text fill="#000000" font-family="sans-serif" font-size="14" lengthAdjust="spacing" textLength="0" x="508" y="144.292"/><line style="stroke:#000000;stroke-width:1.0;" x1="491" x2="491" y1="129.2969" y2="149.5938"/><rect fill="none" height="40.5938" rx="5" ry="5" style="stroke:#000000;stroke-width:1.5;" width="124" x="389" y="109"/><rect fill="#FFFFFF" height="40.5938" rx="5" ry="5" style="stroke:#FFFFFF;stroke-width:1.5;" width="120" x="550" y="85"/><text fill="#000000" font-family="sans-serif" font-size="14" font-weight="bold" lengthAdjust="spacing" textLength="45" x="555" y="99.9951">count</text><text fill="#000000" font-family="sans-serif" font-size="14" lengthAdjust="spacing" textLength="55" x="610" y="99.9951">Number</text><line style="stroke:#000000;stroke-width:1.0;" x1="605" x2="605" y1="85" y2="105.2969"/><line style="stroke:#000000;stroke-width:1.0;" x1="550" x2="670" y1="105.2969" y2="105.2969"/><text fill="#000000" font-family="sans-serif" font-size="14" font-weight="bold" lengthAdjust="spacing" textLength="33" x="555" y="120.292">files</text><text fill="#000000" font-family="sans-serif" font-size="14" lengthAdjust="spacing" textLength="0" x="622" y="120.292"/><line style="stroke:#000000;stroke-width:1.0;" x1="605" x2="605" y1="105.2969" y2="125.5938"/><rect fill="none" height="40.5938" rx="5" ry="5" style="stroke:#000000;stroke-width:1.5;" width="120" x="550" y="85"/><rect fill="#FFFFFF" height="40.5938" rx="5" ry="5" style="stroke:#FFFFFF;stroke-width:1.5;" width="92" x="707" y="95"/><text fill="#000000" font-family="sans-serif" font-size="14" font-weight="bold" lengthAdjust="spacing" textLength="44" x="712" y="109.9951">file-id</text><text fill="#000000" font-family="sans-serif" font-size="14" lengthAdjust="spacing" textLength="0" x="794" y="109.9951"/><line style="stroke:#000000;stroke-width:1.0;" x1="777" x2="777" y1="95" y2="115.2969"/><line style="stroke:#000000;stroke-width:1.0;" x1="707" x2="799" y1="115.2969" y2="115.2969"/><text fill="#000000" font-family="sans-serif" font-size="14" font-weight="bold" lengthAdjust="spacing" textLength="60" x="712" y="130.292">file-id-2</text><text fill="#000000" font-family="sans-serif" font-size="14" lengthAdjust="spacing" textLength="0" x="794" y="130.292"/><line style="stroke:#000000;stroke-width:1.0;" x1="777" x2="777" y1="115.2969" y2="135.5938"/><rect fill="none" height="40.5938" rx="5" ry="5" style="stroke:#000000;stroke-width:1.5;" width="92" x="707" y="95"/><rect fill="#FFFFFF" height="40.5938" rx="5" ry="5" style="stroke:#FFFFFF;stroke-width:1.5;" width="142" x="836" y="71"/><text fill="#000000" font-family="sans-serif" font-size="14" font-weight="bold" lengthAdjust="spacing" textLength="82" x="841" y="85.9951">comments</text><text fill="#000000" font-family="sans-serif" font-size="14" lengthAdjust="spacing" textLength="0" x="945" y="85.9951"/><line style="stroke:#000000;stroke-width:1.0;" x1="928" x2="928" y1="71" y2="91.2969"/><line style="stroke:#000000;stroke-width:1.0;" x1="836" x2="978" y1="91.2969" y2="91.2969"/><text fill="#000000" font-family="sans-serif" font-size="14" font-weight="bold" lengthAdjust="spacing" textLength="73" x="841" y="106.292">file-name</text><text fill="#000000" font-family="sans-serif" font-size="14" lengthAdjust="spacing" textLength="40" x="933" y="106.292">String</text><line style="stroke:#000000;stroke-width:1.0;" x1="928" x2="928" y1="91.2969" y2="111.5938"/><rect fill="none" height="40.5938" rx="5" ry="5" style="stroke:#000000;stroke-width:1.5;" width="142" x="836" y="71"/><rect fill="#FFFFFF" height="40.5938" rx="5" ry="5" style="stroke:#FFFFFF;stroke-width:1.5;" width="22" x="1015" y="60"/><text fill="#000000" font-family="sans-serif" font-size="14" lengthAdjust="spacing" textLength="0" x="1032" y="74.9951"/><line style="stroke:#000000;stroke-width:1.0;" x1="1015" x2="1037" y1="80.2969" y2="80.2969"/><text fill="#000000" font-family="sans-serif" font-size="14" lengthAdjust="spacing" textLength="0" x="1032" y="95.292"/><rect fill="none" height="40.5938" rx="5" ry="5" style="stroke:#000000;stroke-width:1.5;" width="22" x="1015" y="60"/><rect fill="#FFFFFF" height="60.8906" rx="5" ry="5" style="stroke:#FFFFFF;stroke-width:1.5;" width="148" x="1076" y="10"/><text fill="#000000" font-family="sans-serif" font-size="14" font-weight="bold" lengthAdjust="spacing" textLength="73" x="1081" y="24.9951">comment</text><text fill="#000000" font-family="sans-serif" font-size="14" lengthAdjust="spacing" textLength="40" x="1164" y="24.9951">String</text><line style="stroke:#000000;stroke-width:1.0;" x1="1159" x2="1159" y1="10" y2="30.2969"/><line style="stroke:#000000;stroke-width:1.0;" x1="1076" x2="1224" y1="30.2969" y2="30.2969"/><text fill="#000000" font-family="sans-serif" font-size="14" font-weight="bold" lengthAdjust="spacing" textLength="40" x="1081" y="45.292">point</text><text fill="#000000" font-family="sans-serif" font-size="14" lengthAdjust="spacing" textLength="55" x="1164" y="45.292">Number</text><line style="stroke:#000000;stroke-width:1.0;" x1="1159" x2="1159" y1="30.2969" y2="50.5938"/><line style="stroke:#000000;stroke-width:1.0;" x1="1076" x2="1224" y1="50.5938" y2="50.5938"/><text fill="#000000" font-family="sans-serif" font-size="14" font-weight="bold" lengthAdjust="spacing" textLength="48" x="1081" y="65.5889">target</text><text fill="#000000" font-family="sans-serif" font-size="14" lengthAdjust="spacing" textLength="40" x="1164" y="65.5889">String</text><line style="stroke:#000000;stroke-width:1.0;" x1="1159" x2="1159" y1="50.5938" y2="70.8906"/><rect fill="none" height="60.8906" rx="5" ry="5" style="stroke:#000000;stroke-width:1.5;" width="148" x="1076" y="10"/><rect fill="#FFFFFF" height="60.8906" rx="5" ry="5" style="stroke:#FFFFFF;stroke-width:1.5;" width="148" x="1076" y="89"/><text fill="#000000" font-family="sans-serif" font-size="14" font-weight="bold" lengthAdjust="spacing" textLength="73" x="1081" y="103.9951">comment</text><text fill="#000000" font-family="sans-serif" font-size="14" lengthAdjust="spacing" textLength="40" x="1164" y="103.9951">String</text><line style="stroke:#000000;stroke-width:1.0;" x1="1159" x2="1159" y1="89" y2="109.2969"/><line style="stroke:#000000;stroke-width:1.0;" x1="1076" x2="1224" y1="109.2969" y2="109.2969"/><text fill="#000000" font-family="sans-serif" font-size="14" font-weight="bold" lengthAdjust="spacing" textLength="40" x="1081" y="124.292">point</text><text fill="#000000" font-family="sans-serif" font-size="14" lengthAdjust="spacing" textLength="55" x="1164" y="124.292">Number</text><line style="stroke:#000000;stroke-width:1.0;" x1="1159" x2="1159" y1="109.2969" y2="129.5938"/><line style="stroke:#000000;stroke-width:1.0;" x1="1076" x2="1224" y1="129.5938" y2="129.5938"/><text fill="#000000" font-family="sans-serif" font-size="14" font-weight="bold" lengthAdjust="spacing" textLength="48" x="1081" y="144.5889">target</text><text fill="#000000" font-family="sans-serif" font-size="14" lengthAdjust="spacing" textLength="40" x="1164" y="144.5889">String</text><line style="stroke:#000000;stroke-width:1.0;" x1="1159" x2="1159" y1="129.5938" y2="149.8906"/><rect fill="none" height="60.8906" rx="5" ry="5" style="stroke:#000000;stroke-width:1.5;" width="148" x="1076" y="89"/><rect fill="#FFFFFF" height="15" rx="5" ry="5" style="stroke:#FFFFFF;stroke-width:1.5;" width="30" x="895" y="130.5"/><rect fill="none" height="15" rx="5" ry="5" style="stroke:#000000;stroke-width:1.5;" width="30" x="895" y="130.5"/><rect fill="#FFFFFF" height="15" rx="5" ry="5" style="stroke:#FFFFFF;stroke-width:1.5;" width="30" x="598" y="144.5"/><rect fill="none" height="15" rx="5" ry="5" style="stroke:#000000;stroke-width:1.5;" width="30" x="598" y="144.5"/><path d="M340,95.5 L353,95.5 C380.6432,95.5 412.3113,90.3022 431.8615,86.4799 " fill="none" style="stroke:#000000;stroke-width:1.0;stroke-dasharray:3.0,3.0;"/><path d="M432.4754,89.5158 L434.1384,86.0195 L431.2476,83.444 L439.4512,84.9452 L432.4754,89.5158 " fill="#000000" style="stroke:#000000;stroke-width:1.0;"/><ellipse cx="340" cy="95.5" fill="#000000" rx="3" ry="3" style="stroke:#000000;stroke-width:1.0;"/><path d="M1027,69.5 L1040,69.5 C1049.3881,69.5 1059.0826,68.4916 1068.6428,66.8508 " fill="none" style="stroke:#000000;stroke-width:1.0;stroke-dasharray:3.0,3.0;"/><path d="M1069.2205,69.9027 L1070.9318,66.4175 L1068.0651,63.7988 L1076.2727,65.4065 L1069.2205,69.9027 " fill="#000000" style="stroke:#000000;stroke-width:1.0;"/><ellipse cx="1027" cy="69.5" fill="#000000" rx="3" ry="3" style="stroke:#000000;stroke-width:1.0;"/><path d="M1027,90.5 L1040,90.5 C1049.3881,90.5 1059.0826,91.5084 1068.6428,93.1492 " fill="none" style="stroke:#000000;stroke-width:1.0;stroke-dasharray:3.0,3.0;"/><path d="M1068.0651,96.2012 L1070.9318,93.5825 L1069.2205,90.0973 L1076.2727,94.5935 L1068.0651,96.2012 " fill="#000000" style="stroke:#000000;stroke-width:1.0;"/><ellipse cx="1027" cy="90.5" fill="#000000" rx="3" ry="3" style="stroke:#000000;stroke-width:1.0;"/><path d="M966,80.5 L979,80.5 C988.374,80.5 998.7885,80.5 1007.4714,80.5 " fill="none" style="stroke:#000000;stroke-width:1.0;stroke-dasharray:3.0,3.0;"/><path d="M1007.4714,83.5815 L1009.7825,80.5 L1007.4714,77.4185 L1015.1751,80.5 L1007.4714,83.5815 " fill="#000000" style="stroke:#000000;stroke-width:1.0;"/><ellipse cx="966" cy="80.5" fill="#000000" rx="3" ry="3" style="stroke:#000000;stroke-width:1.0;"/><path d="M787,104.5 L800,104.5 C809.3331,104.5 819.0925,104.002 828.7539,103.2009 " fill="none" style="stroke:#000000;stroke-width:1.0;stroke-dasharray:3.0,3.0;"/><path d="M829.0354,106.2878 L831.0691,102.9898 L828.4724,100.114 L836.4711,102.4972 L829.0354,106.2878 " fill="#000000" style="stroke:#000000;stroke-width:1.0;"/><ellipse cx="787" cy="104.5" fill="#000000" rx="3" ry="3" style="stroke:#000000;stroke-width:1.0;"/><path d="M787,125.5 L800,125.5 C830.9147,125.5 866.5078,130.9641 887.7192,134.8073 " fill="none" style="stroke:#000000;stroke-width:1.0;stroke-dasharray:3.0,3.0;"/><path d="M887.1479,137.8642 L890.0119,135.2358 L888.2905,131.7504 L895.3615,136.2356 L887.1479,137.8642 " fill="#000000" style="stroke:#000000;stroke-width:1.0;"/><ellipse cx="787" cy="125.5" fill="#000000" rx="3" ry="3" style="stroke:#000000;stroke-width:1.0;"/><path d="M658,115.5 L671,115.5 C680.2667,115.5 690.1261,115.5 699.6683,115.5 " fill="none" style="stroke:#000000;stroke-width:1.0;stroke-dasharray:3.0,3.0;"/><path d="M699.6683,118.527 L701.9386,115.5 L699.6683,112.473 L707.2357,115.5 L699.6683,118.527 " fill="#000000" style="stroke:#000000;stroke-width:1.0;"/><ellipse cx="658" cy="115.5" fill="#000000" rx="3" ry="3" style="stroke:#000000;stroke-width:1.0;"/><path d="M501,118.5 L514,118.5 C523.3083,118.5 533.0806,117.8861 542.6758,116.9252 " fill="none" style="stroke:#000000;stroke-width:1.0;stroke-dasharray:3.0,3.0;"/><path d="M543.0118,119.9832 L544.9693,116.6732 L542.3398,113.8672 L550.3207,116.0853 L543.0118,119.9832 " fill="#000000" style="stroke:#000000;stroke-width:1.0;"/><ellipse cx="501" cy="118.5" fill="#000000" rx="3" ry="3" style="stroke:#000000;stroke-width:1.0;"/><path d="M501,139.5 L514,139.5 C540.9398,139.5 571.7668,144.6418 590.9364,148.458 " fill="none" style="stroke:#000000;stroke-width:1.0;stroke-dasharray:3.0,3.0;"/><path d="M590.3222,151.4406 L593.1733,148.9186 L591.5506,145.4754 L598.3928,149.9935 L590.3222,151.4406 " fill="#000000" style="stroke:#000000;stroke-width:1.0;"/><ellipse cx="501" cy="139.5" fill="#000000" rx="3" ry="3" style="stroke:#000000;stroke-width:1.0;"/><path d="M340,116.5 L353,116.5 C362.2976,116.5 372.0504,117.088 381.6444,118.0139 " fill="none" style="stroke:#000000;stroke-width:1.0;stroke-dasharray:3.0,3.0;"/><path d="M381.3203,121.0733 L383.9389,118.257 L381.9685,114.9546 L389.2928,118.8241 L381.3203,121.0733 " fill="#000000" style="stroke:#000000;stroke-width:1.0;"/><ellipse cx="340" cy="116.5" fill="#000000" rx="3" ry="3" style="stroke:#000000;stroke-width:1.0;"/><path d="M206,106.5 L219,106.5 C228.3208,106.5 238.2234,106.5 247.8362,106.5 " fill="none" style="stroke:#000000;stroke-width:1.0;stroke-dasharray:3.0,3.0;"/><path d="M247.8362,109.5522 L250.1254,106.5 L247.8362,103.4478 L255.4668,106.5 L247.8362,109.5522 " fill="#000000" style="stroke:#000000;stroke-width:1.0;"/><ellipse cx="206" cy="106.5" fill="#000000" rx="3" ry="3" style="stroke:#000000;stroke-width:1.0;"/><!--MD5=[b96b9527fdc7fc55b687c39bd652ed77]
@startjson
{
   "virtual-comment-store" : {
      "default" : {},
      "projects" : {
         "project-id" : {
            "count" : "Number",
            "files" : {
               "file-id" : {
                  "comments" : [
                     {
                        "comment" : "String",
                        "point" : "Number",
                        "target" : "String"
                     },
                     {
                        "comment" : "String",
                        "point" : "Number",
                        "target" : "String"
                     }
                  ],
                  "file-name" : "String"
               },
               "file-id-2" : []
            }
         },
         "project-id-2" : {}
      }
   }
}
@endjson

PlantUML version 1.2022.1(Tue Feb 01 11:19:58 MST 2022)
(GPL source distribution)
Java Runtime: OpenJDK Runtime Environment
JVM: OpenJDK 64-Bit Server VM
Default Encoding: UTF-8
Language: en
Country: CA
--></g></svg>